<svg width="96" xmlns="http://www.w3.org/2000/svg" height="120" fill="none"><defs><clipPath id="a" class="frame-clip frame-clip-def"><rect rx="0" ry="0" width="96" height="120"/></clipPath></defs><g clip-path="url(#a)"><g class="fills"><rect width="96" height="120" class="frame-background" style="fill: rgb(0, 0, 0); fill-opacity: 0;" ry="0" rx="0" fill="none"/></g><g style="fill: rgb(0, 0, 0);" class="frame-children"><path d="M47.516 2.37c13.485 3.257 23.623 17.203 23.623 33.915 0 19.129-13.281 34.636-29.662 34.636S11.815 55.409 11.815 36.285a39.309 39.309 0 0 1 3.042-15.281l-5.091-4.723A40.916 40.916 0 0 0 0 42.863c0 22.659 18.322 41.03 40.933 41.03 22.61 0 40.932-18.366 40.932-41.03.002-20.411-14.872-37.336-34.349-40.493Z" style="fill: rgb(255, 255, 255); fill-opacity: 1;" class="fills"/><path d="M93.865 120 10.438 15.334 4.21 24.74 93.865 120ZM96 100.877 61.313 50.291a1.61 1.61 0 0 1-.128-1.605l1.304-2.756-11.807 9.357 2.48-.634a1.778 1.778 0 0 1 1.765.535L96 100.877ZM27.382 13.819c3.806 0 6.893-3.094 6.893-6.91C34.275 3.093 31.188 0 27.382 0c-3.807 0-6.893 3.093-6.893 6.909s3.086 6.91 6.893 6.91Z" style="fill: rgb(255, 255, 255); fill-opacity: 1;" class="fills"/></g></g></svg>