<svg width="1562.519" xmlns="http://www.w3.org/2000/svg" height="270.387" id="screenshot-ece37852-2307-8031-8006-3aa62f32da01" viewBox="-0 -0 1562.519 270.387" xmlns:xlink="http://www.w3.org/1999/xlink" fill="none" version="1.1"><g id="shape-ece37852-2307-8031-8006-3aa62f32da01" rx="0" ry="0"><g id="shape-ece37852-2307-8031-8006-3aa44bc966e5" rx="0" ry="0" style="fill: rgb(0, 0, 0);"><g id="shape-ece37852-2307-8031-8006-3aa4ead4029a"><g class="fills" id="fills-ece37852-2307-8031-8006-3aa4ead4029a"><path d="M1487.917,10.387L1531.917,2.387L1553.917,6.387L1561.917,23.387L1557.917,39.387L1545.917,59.387L1526.917,80.387L1512.917,90.387L1521.917,91.387L1528.917,96.387L1535.917,113.387L1532.917,127.387L1520.917,148.387L1495.917,176.387L1446.917,213.387L1362.917,259.387L1302.917,270.387L1254.917,260.387L884.917,259.387L939.917,16.387L1239.917,6.887L1487.917,10.387Z" style="fill: rgb(255, 255, 255); fill-opacity: 1;"/></g><g id="strokes-03657ae9-1e5c-80be-8006-3aa64a57c029-ece37852-2307-8031-8006-3aa4ead4029a" class="strokes"><g class="inner-stroke-shape"><defs><clipPath id="inner-stroke-render-3-ece37852-2307-8031-8006-3aa4ead4029a-0"><use href="#stroke-shape-render-3-ece37852-2307-8031-8006-3aa4ead4029a-0"/></clipPath><path d="M1487.917,10.387L1531.917,2.387L1553.917,6.387L1561.917,23.387L1557.917,39.387L1545.917,59.387L1526.917,80.387L1512.917,90.387L1521.917,91.387L1528.917,96.387L1535.917,113.387L1532.917,127.387L1520.917,148.387L1495.917,176.387L1446.917,213.387L1362.917,259.387L1302.917,270.387L1254.917,260.387L884.917,259.387L939.917,16.387L1239.917,6.887L1487.917,10.387Z" id="stroke-shape-render-3-ece37852-2307-8031-8006-3aa4ead4029a-0" style="fill: none; stroke-width: 4; stroke: rgb(255, 255, 255); stroke-opacity: 1;"/></defs><use href="#stroke-shape-render-3-ece37852-2307-8031-8006-3aa4ead4029a-0" clip-path="url('#inner-stroke-render-3-ece37852-2307-8031-8006-3aa4ead4029a-0')"/></g></g></g><g id="shape-ece37852-2307-8031-8006-3aa44bd3e833"><g class="fills" id="fills-ece37852-2307-8031-8006-3aa44bd3e833"><path d="M933.810,6.670C933.810,6.670,874.500,265.438,874.500,265.438C874.517,265.438,874.519,265.438,874.553,265.438C874.553,265.438,1148.934,265.438,1148.934,265.438C1148.934,265.438,1291.640,265.438,1291.640,265.438C1274.639,263.954,1261.217,257.986,1253.219,247.106C1251.736,245.094,1250.510,242.926,1249.436,240.659C1248.754,238.987,1248.112,237.301,1247.464,235.596C1245.759,230.174,1245.079,224.156,1245.386,217.745C1246.238,199.874,1254.624,178.617,1269.152,156.357C1284.584,132.700,1306.951,107.906,1334.643,84.897C1340.850,79.744,1347.268,74.655,1353.987,69.710C1362.291,63.600,1370.660,57.973,1379.032,52.711C1409.880,33.290,1440.651,19.701,1467.917,12.798C1441.861,21.299,1412.589,35.730,1383.669,55.376C1382.628,56.078,1381.601,56.798,1380.578,57.507C1364.532,68.625,1349.995,80.433,1337.308,92.358C1296.485,130.742,1274.907,170.516,1284.712,193.818C1285.412,195.421,1286.245,196.952,1287.217,198.401C1297.755,213.901,1323.873,216.581,1356.971,208.259C1359.222,207.697,1361.473,207.059,1363.792,206.394C1374.364,203.342,1385.589,199.219,1397.150,194.138C1399.930,192.910,1402.739,191.648,1405.570,190.301C1405.860,190.165,1406.133,190.028,1406.423,189.875C1442.914,171.743,1470.959,150.880,1477.029,138.345C1478.359,135.619,1478.679,133.294,1477.775,131.471C1473.444,122.689,1443.136,128.622,1406.423,144.527C1403.473,145.806,1400.488,147.122,1397.470,148.523C1399.926,146.243,1402.481,143.955,1405.090,141.702C1409.251,138.118,1413.559,134.613,1418.146,131.151C1425.325,125.715,1432.583,120.801,1439.728,116.444C1473.184,91.203,1490.098,67.327,1486.568,58.466C1485.903,56.797,1484.488,55.648,1482.305,54.949C1475.331,52.731,1462.601,55.379,1447.135,61.717C1434.380,66.948,1419.730,74.708,1404.877,84.364C1404.877,84.364,1402.852,85.697,1402.852,85.697C1402.852,85.697,1402.479,85.910,1402.479,85.910C1402.479,85.910,1395.339,90.652,1395.339,90.652C1395.339,90.652,1399.442,83.139,1399.442,83.139C1405.529,71.995,1415.445,60.368,1427.791,49.567C1436.846,41.670,1447.190,34.230,1458.325,27.719C1462.537,25.253,1466.743,22.963,1470.955,20.898C1475.269,18.790,1479.585,16.917,1483.797,15.249C1496.034,10.410,1507.715,7.470,1517.901,6.670C1516.974,6.670,1489.286,6.670,1489.286,6.670C1489.286,6.670,1392.834,6.670,1392.834,6.670C1392.834,6.670,967.541,6.670,967.541,6.670C967.541,6.670,933.810,6.670,933.810,6.670ZZM1239.790,7.043C1238.119,32.548,1243.064,69.905,1254.285,111.381C1256.280,118.762,1258.452,126.272,1260.839,133.869C1262.323,138.560,1263.853,143.178,1265.422,147.724C1264.501,149.078,1263.574,150.423,1262.704,151.774C1248.705,173.229,1240.522,193.505,1238.458,211.137C1232.541,191.322,1228.086,169.619,1225.563,146.605C1224.846,140.011,1224.286,133.490,1223.911,127.048C1221.148,80.252,1227.257,37.831,1239.790,7.043ZZM960.401,40.242C960.720,40.234,961.035,40.242,961.360,40.242C961.360,40.242,1024.400,40.242,1024.400,40.242C1029.788,40.242,1033.955,41.252,1036.922,43.279C1039.872,45.319,1040.979,47.957,1040.280,51.166C1040.280,51.166,1032.766,85.110,1032.766,85.110C1032.766,85.110,1010.545,85.110,1010.545,85.110C1010.545,85.110,1017.845,52.072,1017.845,52.072C1017.845,52.072,962.212,52.072,962.212,52.072C962.212,52.072,942.123,142.875,942.123,142.875C942.123,142.875,934.876,175.754,934.876,175.754C934.876,175.754,990.455,175.754,990.455,175.754C990.455,175.754,990.508,175.540,990.508,175.540C990.508,175.540,1001.646,125.236,1001.646,125.236C1001.646,125.236,975.534,125.236,975.534,125.236C975.534,125.236,978.039,113.886,978.039,113.886C978.039,113.886,1026.371,113.886,1026.371,113.886C1026.371,113.886,1012.516,176.659,1012.516,176.659C1012.329,177.553,1012.001,178.363,1011.557,179.164C1010.415,181.244,1008.422,183.026,1005.642,184.493C1001.788,186.522,997.176,187.530,991.787,187.530C991.787,187.530,928.801,187.530,928.801,187.530C923.412,187.530,919.245,186.522,916.278,184.493C913.328,182.464,912.205,179.872,912.921,176.659C912.921,176.659,940.684,51.166,940.684,51.166C941.400,47.957,943.634,45.319,947.505,43.279C947.641,43.206,947.795,43.189,947.931,43.119C951.464,41.350,955.610,40.355,960.401,40.242ZZM1059.197,40.242C1059.197,40.242,1138.543,40.242,1138.543,40.242C1143.863,40.242,1148.045,41.252,1151.012,43.279C1153.997,45.319,1155.139,47.957,1154.423,51.166C1154.423,51.166,1139.609,118.096,1139.609,118.096C1138.910,121.284,1136.622,123.886,1132.735,125.929C1128.847,127.979,1124.270,129.020,1118.933,129.020C1118.933,129.020,1061.275,129.020,1061.275,129.020C1061.275,129.020,1050.138,179.271,1050.138,179.271C1050.138,179.271,1048.326,187.530,1048.326,187.530C1048.326,187.530,1026.584,187.530,1026.584,187.530C1026.584,187.530,1028.236,180.070,1028.236,180.070C1028.236,180.070,1059.197,40.242,1059.197,40.242ZZM1168.811,40.242C1168.811,40.242,1190.552,40.242,1190.552,40.242C1190.552,40.242,1165.933,151.454,1165.933,151.454C1165.933,151.454,1160.551,175.754,1160.551,175.754C1160.551,175.754,1212.560,175.754,1212.560,175.754C1213.106,179.742,1213.743,183.659,1214.425,187.530C1214.425,187.530,1136.198,187.530,1136.198,187.530C1136.198,187.530,1142.380,159.607,1142.380,159.607C1142.380,159.607,1168.811,40.242,1168.811,40.242ZZM1078.327,52.072C1078.327,52.072,1063.886,117.190,1063.886,117.190C1063.886,117.190,1118.080,117.190,1118.080,117.190C1118.080,117.190,1132.468,52.072,1132.468,52.072C1132.468,52.072,1078.327,52.072,1078.327,52.072ZZM1032.766,197.762C1032.979,197.755,1033.191,197.762,1033.405,197.762C1035.929,197.762,1038.133,198.205,1039.906,199.040C1041.799,199.927,1043.153,201.244,1043.903,202.984C1044.636,204.672,1044.828,206.588,1044.436,208.686C1044.436,208.686,1044.276,209.485,1044.276,209.485C1044.276,209.485,1038.041,209.485,1038.041,209.485C1038.041,209.485,1038.095,208.739,1038.095,208.739C1038.256,207.273,1038.074,206.121,1037.509,205.328C1037.435,205.229,1037.328,205.098,1037.242,205.009C1037.101,204.865,1036.890,204.701,1036.709,204.582C1035.837,204.033,1034.472,203.730,1032.713,203.730C1030.376,203.730,1028.631,204.137,1027.437,204.955C1026.278,205.757,1025.544,206.652,1025.306,207.726C1025.067,208.818,1025.459,209.391,1025.732,209.698C1025.740,209.706,1025.775,209.742,1025.785,209.751C1026.131,210.046,1027.331,210.736,1031.061,211.616C1034.437,212.435,1036.673,213.170,1037.935,213.801C1039.845,214.773,1041.179,216.033,1041.878,217.585C1042.577,219.119,1042.731,220.916,1042.305,222.860C1041.878,224.753,1040.913,226.499,1039.480,228.136C1038.065,229.773,1036.264,231.069,1034.098,231.973C1031.950,232.859,1029.592,233.358,1027.171,233.358C1024.101,233.358,1021.637,232.893,1019.710,231.973C1017.698,231.018,1016.247,229.511,1015.394,227.550C1014.575,225.640,1014.401,223.472,1014.861,221.102C1014.861,221.102,1015.021,220.356,1015.021,220.356C1015.021,220.356,1021.149,220.356,1021.149,220.356C1021.149,220.356,1021.096,221.102,1021.096,221.102C1020.942,222.517,1021.094,223.660,1021.469,224.512C1021.827,225.331,1022.509,226.009,1023.600,226.537C1024.760,227.100,1026.209,227.390,1027.863,227.390C1029.347,227.390,1030.703,227.140,1031.913,226.697C1033.107,226.271,1034.055,225.708,1034.738,224.992C1035.403,224.276,1035.793,223.519,1035.963,222.700C1036.134,221.967,1036.093,221.347,1035.803,220.835C1035.479,220.290,1034.838,219.806,1033.832,219.397C1033.832,219.397,1028.609,217.851,1028.609,217.851C1025.694,217.118,1023.730,216.419,1022.588,215.720C1021.036,214.799,1019.917,213.618,1019.337,212.203C1018.758,210.804,1018.696,209.255,1019.071,207.567C1019.463,205.759,1020.335,204.039,1021.682,202.504C1023.046,200.952,1024.807,199.735,1026.904,198.934C1028.759,198.238,1030.710,197.831,1032.766,197.762ZZM1088.718,197.868C1089.056,197.842,1089.373,197.868,1089.731,197.868C1089.731,197.868,1093.568,198.294,1093.568,198.294C1093.568,198.294,1094.847,198.401,1094.847,198.401C1094.847,198.401,1092.982,203.144,1092.982,203.144C1092.982,203.144,1092.609,203.890,1092.609,203.890C1092.609,203.890,1089.678,203.623,1089.678,203.623C1088.812,203.623,1088.177,203.757,1087.759,204.050C1087.732,204.070,1087.678,204.134,1087.653,204.156C1087.597,204.205,1087.503,204.291,1087.440,204.369C1087.183,204.706,1086.870,205.307,1086.640,206.394C1086.640,206.394,1086.529,206.855,1086.427,207.247C1087.774,207.247,1091.010,207.247,1091.010,207.247C1091.010,207.247,1089.838,212.522,1089.838,212.522C1089.838,212.522,1086.487,212.522,1085.361,212.522C1085.020,214.057,1080.832,232.825,1080.832,232.825C1080.832,232.825,1074.650,232.825,1074.650,232.825C1074.650,232.825,1078.668,214.790,1079.180,212.522C1078.140,212.522,1075.610,212.522,1075.610,212.522C1075.610,212.522,1076.782,207.247,1076.782,207.247C1076.782,207.247,1079.327,207.247,1080.299,207.247C1080.469,206.514,1080.725,205.595,1080.725,205.595C1081.100,203.890,1081.493,202.664,1082.004,201.811C1082.703,200.635,1083.690,199.650,1084.935,198.934C1085.960,198.338,1087.257,197.982,1088.718,197.868ZZM1103.479,198.135C1103.479,198.135,1101.864,205.405,1101.454,207.247C1102.648,207.247,1105.451,207.247,1105.451,207.247C1105.451,207.247,1104.279,212.522,1104.279,212.522C1104.279,212.522,1101.339,212.522,1100.282,212.522C1099.958,213.989,1097.404,225.365,1097.404,225.365C1097.404,225.365,1097.191,226.731,1097.191,227.123C1097.192,227.136,1097.190,227.167,1097.191,227.177C1097.192,227.181,1097.190,227.227,1097.191,227.230C1097.193,227.233,1097.242,227.228,1097.245,227.230C1097.245,227.230,1097.884,227.283,1097.884,227.283C1097.884,227.283,1100.815,227.070,1100.815,227.070C1100.815,227.070,1100.495,231.813,1100.495,231.813C1100.495,231.813,1100.548,232.665,1100.548,232.665C1100.548,232.665,1096.339,233.145,1096.339,233.145C1094.668,233.145,1093.442,232.872,1092.555,232.292C1091.617,231.678,1091.072,230.864,1090.850,229.841C1090.816,229.653,1090.743,229.381,1090.743,228.988C1090.743,228.221,1090.888,226.923,1091.383,224.672C1091.383,224.672,1093.623,214.637,1094.101,212.522C1093.299,212.522,1091.170,212.522,1091.170,212.522C1091.170,212.522,1092.342,207.247,1092.342,207.247C1092.342,207.247,1094.420,207.247,1095.273,207.247C1095.546,206.019,1096.499,201.811,1096.499,201.811C1096.499,201.811,1101.454,199.200,1101.454,199.200C1101.454,199.200,1103.479,198.135,1103.479,198.135ZZM907.112,198.348C907.112,198.348,931.092,198.348,931.092,198.348C931.092,198.348,929.760,204.316,929.760,204.316C929.760,204.316,913.763,204.316,912.228,204.316C911.955,205.527,910.862,210.429,910.470,212.203C912.686,212.203,925.657,212.203,925.657,212.203C925.657,212.203,924.324,218.171,924.324,218.171C924.324,218.171,910.672,218.171,909.137,218.171C908.813,219.654,905.887,232.825,905.887,232.825C905.887,232.825,899.439,232.825,899.439,232.825C899.439,232.825,907.112,198.348,907.112,198.348ZZM939.245,206.767C939.486,206.738,939.749,206.767,939.991,206.767C941.526,206.767,942.943,207.234,944.308,208.206C944.308,208.206,945.160,208.792,945.160,208.792C945.160,208.792,941.856,214.228,941.856,214.228C941.856,214.228,940.950,213.588,940.950,213.588C940.285,213.162,939.569,212.949,938.819,212.949C938.171,212.949,937.568,213.179,936.954,213.588C936.306,214.014,935.764,214.579,935.355,215.347C934.639,216.660,934.115,218.130,933.756,219.716C933.756,219.716,930.879,232.825,930.879,232.825C930.879,232.825,924.697,232.825,924.697,232.825C924.697,232.825,930.399,207.247,930.399,207.247C930.399,207.247,936.154,207.247,936.154,207.247C936.154,207.247,935.956,208.023,935.888,208.313C936.161,208.108,936.449,207.827,936.687,207.673C937.513,207.180,938.386,206.873,939.245,206.767ZZM957.576,206.767C957.948,206.739,958.315,206.767,958.695,206.767C962.174,206.767,964.806,207.986,966.529,210.391C967.603,211.943,968.181,213.861,968.181,216.146C968.181,217.408,968.025,218.766,967.701,220.249C967.701,220.249,967.221,222.114,967.221,222.114C967.221,222.114,951.589,222.114,949.849,222.114C949.815,222.472,949.796,222.856,949.796,223.180C949.796,224.510,950.069,225.557,950.649,226.324C950.924,226.699,951.244,227.037,951.608,227.283C952.295,227.731,953.181,227.976,954.219,227.976C955.481,227.976,956.589,227.628,957.630,226.963C958.619,226.333,959.565,225.324,960.401,223.926C960.401,223.926,967.008,223.926,967.008,223.926C967.008,223.926,966.422,225.205,966.422,225.205C965.160,227.763,963.400,229.758,961.200,231.173C959.000,232.589,956.372,233.358,953.473,233.358C949.705,233.358,946.899,232.139,945.160,229.734C943.438,227.381,943.067,224.129,943.988,220.036C944.909,215.875,946.746,212.550,949.423,210.231C951.823,208.150,954.546,206.996,957.576,206.767ZZM985.339,206.767C985.712,206.739,986.078,206.767,986.458,206.767C989.937,206.767,992.570,207.986,994.292,210.391C995.366,211.943,995.944,213.861,995.944,216.146C995.944,217.391,995.788,218.729,995.464,220.196C995.464,220.196,994.985,222.114,994.985,222.114C994.985,222.114,979.352,222.114,977.613,222.114C977.596,222.353,977.576,222.568,977.559,222.807C977.547,222.896,977.565,223.032,977.559,223.127C977.559,223.142,977.559,223.165,977.559,223.180C977.559,223.436,977.596,223.687,977.613,223.926C977.698,224.898,977.952,225.710,978.412,226.324C978.500,226.443,978.582,226.591,978.678,226.697C979.459,227.533,980.565,227.976,981.982,227.976C983.244,227.976,984.370,227.628,985.393,226.963C986.382,226.333,987.328,225.324,988.164,223.926C988.164,223.926,994.825,223.926,994.825,223.926C994.825,223.926,994.185,225.205,994.185,225.205C992.923,227.763,991.163,229.758,988.963,231.173C986.763,232.589,984.135,233.358,981.236,233.358C977.468,233.358,974.663,232.139,972.923,229.734C971.798,228.200,971.271,226.245,971.271,223.926C971.271,223.568,971.291,223.182,971.325,222.807C971.393,221.920,971.529,221.025,971.751,220.036C972.672,215.892,974.456,212.550,977.133,210.231C979.533,208.150,982.309,206.996,985.339,206.767ZZM1060.955,206.767C1061.336,206.738,1061.686,206.767,1062.074,206.767C1065.621,206.767,1068.347,207.967,1070.121,210.338C1071.877,212.708,1072.304,215.905,1071.400,219.929C1070.701,223.067,1069.690,225.601,1068.309,227.443C1066.928,229.285,1065.167,230.790,1063.087,231.813C1061.024,232.836,1058.839,233.358,1056.639,233.358C1053.024,233.358,1050.332,232.122,1048.592,229.734C1047.467,228.217,1046.887,226.262,1046.887,223.926C1046.887,222.664,1047.026,221.323,1047.367,219.823C1048.390,215.253,1050.479,211.772,1053.548,209.538C1055.801,207.912,1058.289,206.972,1060.955,206.767ZZM1154.583,206.767C1155.032,206.740,1155.449,206.767,1155.915,206.767C1158.063,206.767,1159.752,206.985,1161.031,207.513C1162.395,208.059,1163.362,208.831,1163.908,209.751C1164.437,210.621,1164.707,211.689,1164.707,213.002C1164.707,213.002,1164.068,216.892,1164.068,216.892C1164.068,216.892,1162.896,222.168,1162.896,222.168C1161.890,226.669,1161.668,228.357,1161.617,228.988C1161.565,229.841,1161.644,230.672,1161.883,231.440C1161.883,231.440,1162.309,232.825,1162.309,232.825C1162.309,232.825,1156.021,232.825,1156.021,232.825C1156.021,232.825,1155.755,232.026,1155.755,232.026C1155.653,231.651,1155.682,231.173,1155.648,230.747C1154.455,231.480,1153.259,232.130,1152.185,232.505C1150.599,233.051,1148.953,233.358,1147.282,233.358C1144.383,233.358,1142.237,232.603,1140.941,231.120C1139.952,230.029,1139.502,228.694,1139.502,227.177C1139.502,226.597,1139.579,225.996,1139.715,225.365C1140.005,224.069,1140.532,222.869,1141.367,221.794C1142.186,220.737,1143.153,219.868,1144.245,219.237C1145.302,218.606,1146.481,218.158,1147.708,217.851C1147.708,217.851,1151.492,217.212,1151.492,217.212C1154.408,216.871,1156.584,216.447,1158.153,215.986C1158.187,215.816,1158.260,215.613,1158.260,215.613C1158.507,214.516,1158.476,213.691,1158.206,213.268C1158.186,213.241,1158.122,213.185,1158.100,213.162C1158.042,213.100,1157.954,213.004,1157.887,212.949C1157.245,212.441,1156.151,212.203,1154.689,212.203C1153.035,212.203,1151.812,212.473,1150.959,213.002C1150.123,213.531,1149.350,214.498,1148.668,215.880C1148.668,215.879,1142.220,215.880,1142.220,215.880C1142.220,215.879,1142.806,214.601,1142.806,214.601C1143.573,212.827,1144.488,211.356,1145.630,210.231C1146.773,209.105,1148.316,208.234,1150.106,207.620C1151.479,207.167,1152.977,206.866,1154.583,206.767ZZM1181.600,206.767C1181.840,206.738,1182.103,206.767,1182.346,206.767C1183.898,206.767,1185.351,207.234,1186.715,208.206C1186.715,208.206,1187.515,208.792,1187.515,208.792C1187.515,208.792,1184.211,214.228,1184.211,214.228C1184.211,214.228,1183.305,213.588,1183.305,213.588C1182.640,213.162,1181.960,212.949,1181.227,212.949C1180.579,212.949,1179.939,213.179,1179.308,213.588C1178.660,214.014,1178.189,214.579,1177.763,215.347C1177.064,216.660,1176.522,218.130,1176.164,219.716C1176.164,219.716,1173.234,232.825,1173.234,232.825C1173.234,232.825,1167.052,232.825,1167.052,232.825C1167.052,232.825,1172.754,207.247,1172.754,207.247C1172.754,207.247,1178.509,207.247,1178.509,207.247C1178.509,207.247,1178.364,208.023,1178.296,208.313C1178.569,208.108,1178.839,207.827,1179.095,207.673C1179.908,207.180,1180.741,206.873,1181.600,206.767ZZM1199.878,206.767C1200.249,206.739,1200.616,206.767,1200.997,206.767C1204.475,206.767,1207.125,207.986,1208.830,210.391C1209.921,211.943,1210.482,213.861,1210.482,216.146C1210.482,217.408,1210.273,218.766,1209.949,220.249C1209.949,220.249,1209.523,222.114,1209.523,222.114C1209.523,222.114,1193.873,222.114,1192.151,222.114C1192.117,222.472,1192.044,222.856,1192.044,223.180C1192.044,224.510,1192.334,225.557,1192.897,226.324C1192.985,226.443,1193.120,226.591,1193.217,226.697C1193.273,226.757,1193.371,226.855,1193.430,226.910C1194.192,227.603,1195.230,227.976,1196.520,227.976C1197.782,227.976,1198.891,227.628,1199.931,226.963C1200.920,226.333,1201.849,225.324,1202.702,223.926C1202.702,223.926,1209.363,223.926,1209.363,223.926C1209.363,223.926,1208.723,225.205,1208.723,225.205C1207.462,227.763,1205.684,229.758,1203.501,231.173C1201.284,232.589,1198.690,233.358,1195.774,233.358C1192.006,233.358,1189.254,232.139,1187.515,229.734C1185.792,227.381,1185.385,224.129,1186.289,220.036C1187.210,215.875,1188.994,212.550,1191.671,210.231C1194.086,208.150,1196.850,206.996,1199.878,206.767ZZM1106.570,207.247C1106.570,207.247,1112.911,207.247,1112.911,207.247C1112.911,207.247,1113.694,222.425,1113.711,222.647C1113.966,222.104,1114.165,221.646,1114.190,221.581C1114.190,221.581,1121.171,207.247,1121.171,207.247C1121.171,207.247,1126.979,207.247,1126.979,207.247C1126.979,207.247,1127.512,222.242,1127.512,222.327C1127.683,222.020,1135.452,207.247,1135.452,207.247C1135.452,207.247,1141.740,207.247,1141.740,207.247C1141.740,207.247,1127.885,232.825,1127.885,232.825C1127.885,232.825,1122.183,232.825,1122.183,232.825C1122.183,232.825,1121.631,218.955,1121.597,218.171C1119.244,222.997,1114.457,232.825,1114.457,232.825C1114.457,232.825,1108.595,232.825,1108.595,232.825C1108.595,232.825,1106.570,207.247,1106.570,207.247ZZM957.683,212.096C956.214,212.158,954.880,212.688,953.633,213.695C952.644,214.479,951.977,215.556,951.448,216.732C951.448,216.732,961.946,216.732,961.946,216.732C961.963,216.545,961.999,216.316,961.999,216.146C961.999,215.174,961.827,214.419,961.520,213.908C960.769,212.680,959.657,212.096,958.003,212.096C957.903,212.096,957.781,212.092,957.683,212.096ZZM985.446,212.096C983.977,212.158,982.643,212.688,981.396,213.695C980.407,214.479,979.757,215.556,979.211,216.732C979.211,216.732,989.709,216.732,989.709,216.732C989.726,216.545,989.762,216.316,989.762,216.146C989.762,215.174,989.607,214.419,989.283,213.908C989.134,213.658,988.932,213.410,988.750,213.215C988.038,212.479,987.058,212.096,985.766,212.096C985.667,212.096,985.544,212.092,985.446,212.096ZZM1200.197,212.096C1198.687,212.143,1197.276,212.654,1195.988,213.695C1195.016,214.479,1194.348,215.556,1193.803,216.732C1193.803,216.732,1204.247,216.732,1204.247,216.732C1204.264,216.545,1204.301,216.316,1204.301,216.146C1204.301,215.174,1204.145,214.419,1203.821,213.908C1203.088,212.697,1201.958,212.113,1200.304,212.096C1200.255,212.097,1200.246,212.095,1200.197,212.096ZZM1060.582,212.203C1059.173,212.370,1057.862,213.013,1056.639,214.121C1055.173,215.451,1054.109,217.540,1053.495,220.302C1053.239,221.462,1053.122,222.453,1053.122,223.340C1053.122,224.551,1053.354,225.501,1053.815,226.217C1053.937,226.401,1054.100,226.596,1054.241,226.750C1054.999,227.555,1056.058,227.976,1057.385,227.976C1059.107,227.976,1060.625,227.334,1062.074,226.004C1063.541,224.657,1064.587,222.547,1065.218,219.716C1065.798,217.124,1065.717,215.189,1064.899,213.961C1064.114,212.767,1062.967,212.203,1061.382,212.203C1061.113,212.203,1060.843,212.172,1060.582,212.203ZZM1156.874,221.528C1155.425,221.920,1153.800,222.251,1151.652,222.541C1150.049,222.779,1148.906,223.031,1148.241,223.287C1147.662,223.525,1147.195,223.856,1146.803,224.299C1146.427,224.725,1146.176,225.173,1146.057,225.685C1146.022,225.889,1146.003,226.100,1146.003,226.271C1146.003,226.285,1146.003,226.310,1146.003,226.324C1146.005,226.365,1145.999,226.445,1146.003,226.484C1146.014,226.561,1146.035,226.678,1146.057,226.750C1146.065,226.774,1146.101,226.834,1146.110,226.857C1146.129,226.903,1146.140,226.973,1146.163,227.017C1146.187,227.060,1146.241,227.135,1146.270,227.177C1146.314,227.238,1146.375,227.332,1146.430,227.390C1146.856,227.867,1147.706,228.083,1148.934,228.083C1150.281,228.083,1151.577,227.827,1152.771,227.230C1153.948,226.650,1154.896,225.785,1155.595,224.779C1156.107,224.062,1156.516,222.960,1156.874,221.528ZZ" style="fill: rgb(189, 0, 0);"/></g></g><g id="shape-ece37852-2307-8031-8006-3aa44bd5666e"><g class="fills" id="fills-ece37852-2307-8031-8006-3aa44bd5666e"><path d="M1243.848,238.623C1244.540,240.403,1245.232,242.179,1245.953,243.917C1247.064,246.278,1248.347,248.538,1249.890,250.648C1258.226,261.979,1272.186,268.183,1289.910,269.727C1289.910,269.727,1308.975,269.727,1308.975,269.727C1315.003,269.257,1321.319,268.380,1327.867,267.100C1339.159,264.892,1351.128,261.500,1363.559,256.967C1372.977,253.533,1382.653,249.471,1392.474,244.749C1413.861,234.497,1435.955,221.274,1457.630,205.317C1464.769,200.066,1471.619,194.678,1478.195,189.200C1484.223,184.184,1490.006,179.090,1495.529,173.940C1510.946,159.084,1522.584,143.994,1529.174,130.746C1536.039,116.949,1537.409,105.152,1531.785,97.721C1528.338,93.159,1522.569,90.715,1515.142,90.139C1548.600,65.035,1568.098,34.581,1561.103,15.380C1558.882,9.253,1553.994,4.681,1546.985,2.153C1543.870,1.033,1540.365,0.323,1536.544,0.000C1536.544,0.000,1526.247,0.000,1526.247,0.000C1511.869,1.037,1490.960,6.185,1473.222,14.879" style="fill: none; stroke-linecap: butt; stroke-linejoin: miter; stroke-miterlimit: 4;"/></g><g id="strokes-03657ae9-1e5c-80be-8006-3aa64a5bdbde-ece37852-2307-8031-8006-3aa44bd5666e" class="strokes" style="fill: none; stroke-linecap: butt; stroke-linejoin: miter; stroke-miterlimit: 4;"><g class="stroke-shape"><path d="M1243.848,238.623C1244.540,240.403,1245.232,242.179,1245.953,243.917C1247.064,246.278,1248.347,248.538,1249.890,250.648C1258.226,261.979,1272.186,268.183,1289.910,269.727C1289.910,269.727,1308.975,269.727,1308.975,269.727C1315.003,269.257,1321.319,268.380,1327.867,267.100C1339.159,264.892,1351.128,261.500,1363.559,256.967C1372.977,253.533,1382.653,249.471,1392.474,244.749C1413.861,234.497,1435.955,221.274,1457.630,205.317C1464.769,200.066,1471.619,194.678,1478.195,189.200C1484.223,184.184,1490.006,179.090,1495.529,173.940C1510.946,159.084,1522.584,143.994,1529.174,130.746C1536.039,116.949,1537.409,105.152,1531.785,97.721C1528.338,93.159,1522.569,90.715,1515.142,90.139C1548.600,65.035,1568.098,34.581,1561.103,15.380C1558.882,9.253,1553.994,4.681,1546.985,2.153C1543.870,1.033,1540.365,0.323,1536.544,0.000C1536.544,0.000,1526.247,0.000,1526.247,0.000C1511.869,1.037,1490.960,6.185,1473.222,14.879" style="fill: none; stroke-width: 8.52611; stroke: rgb(189, 0, 0); stroke-opacity: 1;"/></g></g></g></g><g id="shape-ece37852-2307-8031-8006-3aa44c149610" width="120" height="42" version="1.0" rx="0" ry="0" style="fill: rgb(0, 0, 0);"><g id="shape-ece37852-2307-8031-8006-3aa44c150023" style="display: none;"><g class="fills" id="fills-ece37852-2307-8031-8006-3aa44c150023"><rect width="760" height="264.99999999999994" x="0" transform="matrix(1.000000, 0.000000, 0.000000, 1.000000, 0.000000, 0.000000)" style="fill: none;" ry="0" fill="none" rx="0" y="0"/></g></g><g id="shape-ece37852-2307-8031-8006-3aa44c155b87" rx="0" ry="0" style="fill: rgb(0, 0, 0);"><g id="shape-ece37852-2307-8031-8006-3aa44c167d5d"><g class="fills" id="fills-ece37852-2307-8031-8006-3aa44c167d5d"><path d="M21.586,2.856L739.495,4.127C749.526,4.127,758.488,2.645,758.488,24.068L757.609,259.597L3.466,259.597L3.466,23.193C3.466,12.628,4.493,2.856,21.586,2.856ZZ" style="fill: rgb(170, 178, 171);"/></g></g><g id="shape-ece37852-2307-8031-8006-3aa44c16cd43"><g class="fills" id="fills-ece37852-2307-8031-8006-3aa44c16cd43"><path d="M745.771,-0.000L14.235,-0.000C6.386,-0.000,-0.000,6.361,-0.000,14.177L-0.000,261.801C-0.000,263.567,1.438,265.000,3.214,265.000L756.785,265.000C758.562,265.000,760.000,263.567,760.000,261.801L760.000,14.177C760.000,6.361,753.614,-0.000,745.771,-0.000ZZM14.235,6.404L745.771,6.404C750.073,6.404,753.571,9.891,753.571,14.177C753.571,14.177,753.571,113.844,753.571,185.926L230.712,185.926C211.548,220.446,174.620,243.883,132.247,243.883C89.861,243.883,52.945,220.467,33.793,185.926L6.429,185.926C6.429,113.844,6.429,14.177,6.429,14.177C6.429,9.891,9.932,6.404,14.235,6.404ZZ"/></g></g><g id="shape-ece37852-2307-8031-8006-3aa44c16cd44" rx="0" ry="0" style="fill: rgb(0, 0, 0);"><g id="shape-ece37852-2307-8031-8006-3aa44c1708ef"><g class="fills" id="fills-ece37852-2307-8031-8006-3aa44c1708ef"><path d="M218.641,123.359C218.671,170.868,180.029,209.400,132.338,209.431C84.648,209.462,45.963,170.969,45.932,123.463C45.932,123.426,45.932,123.396,45.932,123.359C45.901,75.850,84.544,37.318,132.234,37.287C179.930,37.260,218.616,75.749,218.641,123.255C218.641,123.289,218.641,123.325,218.641,123.359ZZ" style="fill: rgb(255, 255, 255);"/></g></g><g id="shape-ece37852-2307-8031-8006-3aa44c183724"><g class="fills" id="fills-ece37852-2307-8031-8006-3aa44c183724"><path d="M202.488,53.295C221.634,72.370,231.210,95.728,231.210,123.359C231.210,150.994,221.800,174.103,202.979,192.689C183.003,212.260,159.401,222.044,132.160,222.044C105.251,222.044,82.054,212.342,62.583,192.931C43.099,173.528,33.362,150.338,33.362,123.359C33.362,96.386,43.099,73.031,62.583,53.295C81.563,34.213,104.759,24.674,132.160,24.674C159.899,24.674,183.335,34.213,202.488,53.295ZZM75.472,66.128C59.282,82.417,51.187,101.498,51.187,123.383C51.187,145.269,59.202,164.188,75.220,180.144C91.249,196.105,110.322,204.086,132.455,204.086C154.588,204.086,173.827,196.025,190.182,179.902C205.708,164.925,213.471,146.092,213.471,123.383C213.471,100.849,205.579,81.719,189.801,66.005C174.030,50.295,154.914,42.436,132.455,42.436C109.996,42.436,90.991,50.334,75.472,66.128ZZM118.073,113.759C115.602,108.386,111.902,105.698,106.960,105.698C98.232,105.698,93.868,111.555,93.868,123.261C93.868,134.971,98.232,140.821,106.960,140.821C112.725,140.821,116.843,137.971,119.314,132.258L131.416,138.678C125.645,148.887,116.991,153.996,105.454,153.996C96.554,153.996,89.424,151.278,84.070,145.844C78.711,140.408,76.031,132.910,76.031,123.359C76.031,113.973,78.797,106.522,84.317,101.002C89.836,95.483,96.720,92.724,104.962,92.724C117.163,92.724,125.891,97.512,131.177,107.079L118.073,113.759ZZM175.013,113.759C172.536,108.386,168.903,105.698,164.121,105.698C155.216,105.698,150.759,111.555,150.759,123.261C150.759,134.971,155.216,140.821,164.121,140.821C169.899,140.821,173.943,137.971,176.248,132.258L188.621,138.678C182.862,148.887,174.220,153.996,162.702,153.996C153.814,153.996,146.703,151.278,141.349,145.844C136.008,140.408,133.328,132.910,133.328,123.359C133.328,113.973,136.045,106.522,141.478,101.002C146.905,95.483,153.814,92.724,162.210,92.724C174.386,92.724,183.108,97.512,188.369,107.079L175.013,113.759ZZ"/></g></g></g><g id="shape-ece37852-2307-8031-8006-3aa44c186ba1"><g class="fills" id="fills-ece37852-2307-8031-8006-3aa44c186ba1"><ellipse cx="327.8332797664003" cy="96.0554418335239" rx="68.0123703904006" ry="67.74910309200038" transform="matrix(1.000000, 0.000000, 0.000000, 1.000000, 0.000000, 0.000000)" style="fill: rgb(255, 255, 255);"/></g></g><g id="shape-ece37852-2307-8031-8006-3aa44c189648"><g class="fills" id="fills-ece37852-2307-8031-8006-3aa44c189648"><path d="M347.519,76.450C347.519,73.839,345.392,71.724,342.774,71.724L312.736,71.724C310.118,71.724,307.991,73.839,307.991,76.450L307.991,106.375L316.369,106.375L316.369,141.810L339.135,141.810L339.135,106.375L347.519,106.375L347.519,76.450ZL347.519,76.450ZZ"/></g></g><g id="shape-ece37852-2307-8031-8006-3aa44c18c4a5"><g class="fills" id="fills-ece37852-2307-8031-8006-3aa44c18c4a5"><ellipse cx="327.7577524256002" cy="57.547669189523695" rx="10.271718348799737" ry="10.231957824000112" transform="matrix(1.000000, 0.000000, 0.000000, 1.000000, 0.000000, 0.000000)"/></g></g><g id="shape-ece37852-2307-8031-8006-3aa44c191707"><g class="fills" id="fills-ece37852-2307-8031-8006-3aa44c191707"><path d="M327.660,21.405C307.321,21.405,290.099,28.476,276.005,42.620C261.543,57.250,254.315,74.568,254.315,94.561C254.315,114.555,261.543,131.750,276.005,146.141C290.468,160.523,307.690,167.721,327.660,167.721C347.882,167.721,365.411,160.468,380.243,145.955C394.214,132.179,401.196,115.047,401.196,94.561C401.196,74.075,394.091,56.763,379.874,42.620C365.657,28.476,348.257,21.405,327.660,21.405ZZM327.850,34.568C344.520,34.568,358.669,40.425,370.310,52.131C382.080,63.712,387.963,77.859,387.963,94.561C387.963,111.386,382.203,125.349,370.679,136.446C358.546,148.394,344.268,154.367,327.850,154.367C311.421,154.367,297.266,148.456,285.379,136.627C273.491,124.801,267.548,110.780,267.548,94.561C267.548,78.342,273.553,64.202,285.563,52.131C297.088,40.425,311.181,34.568,327.850,34.568ZZ" clip-rule="evenodd" style="fill-rule: evenodd;"/></g></g><g id="shape-ece37852-2307-8031-8006-3aa44c199081"><g class="fills" id="fills-ece37852-2307-8031-8006-3aa44c199081"><path d="M306.541,206.621C308.538,206.621,310.364,206.798,312.011,207.147C313.658,207.496,315.072,208.072,316.252,208.874C317.426,209.670,318.336,210.735,318.987,212.058C319.633,213.386,319.958,215.021,319.958,216.974C319.958,219.080,319.479,220.831,318.514,222.233C317.555,223.642,316.129,224.787,314.248,225.687C316.842,226.427,318.778,227.725,320.057,229.581C321.335,231.436,321.975,233.670,321.975,236.285C321.975,238.391,321.563,240.216,320.739,241.759C319.915,243.295,318.803,244.557,317.408,245.530C316.019,246.510,314.427,247.232,312.644,247.697C310.856,248.169,309.024,248.402,307.137,248.402L286.768,248.402L286.768,206.621L306.541,206.621ZL306.541,206.621ZZM305.361,223.519C307.008,223.519,308.360,223.127,309.417,222.350C310.481,221.572,311.009,220.311,311.009,218.560C311.009,217.586,310.831,216.784,310.481,216.166C310.124,215.541,309.657,215.058,309.067,214.703C308.477,214.354,307.801,214.109,307.039,213.974C306.270,213.839,305.477,213.772,304.654,213.772L296.012,213.772L296.012,223.519L305.361,223.519ZZM305.902,241.250C306.805,241.250,307.666,241.165,308.489,240.987C309.313,240.809,310.038,240.516,310.671,240.112C311.298,239.701,311.796,239.144,312.171,238.440C312.540,237.742,312.730,236.842,312.730,235.752C312.730,233.609,312.122,232.079,310.905,231.160C309.688,230.248,308.077,229.789,306.080,229.789L296.012,229.789L296.012,241.250L305.902,241.250ZZ" style="fill: rgb(255, 255, 255);"/></g></g><g id="shape-ece37852-2307-8031-8006-3aa44c19de17"><g class="fills" id="fills-ece37852-2307-8031-8006-3aa44c19de17"><path d="M323.603,206.621L333.942,206.621L343.764,223.121L353.530,206.621L363.813,206.621L348.238,232.366L348.238,248.402L338.994,248.402L338.994,232.134L323.603,206.621ZZ" style="fill: rgb(255, 255, 255);"/></g></g><g id="shape-ece37852-2307-8031-8006-3aa44c1a8d7b"><g class="fills" id="fills-ece37852-2307-8031-8006-3aa44c1a8d7b"><path d="M623.457,238.073C623.967,239.046,624.637,239.836,625.479,240.442C626.321,241.048,627.305,241.495,628.442,241.789C629.573,242.083,630.740,242.230,631.957,242.230C632.775,242.230,633.654,242.163,634.594,242.022C635.529,241.887,636.407,241.624,637.231,241.232C638.049,240.846,638.731,240.307,639.284,239.622C639.825,238.942,640.101,238.073,640.101,237.020C640.101,235.887,639.739,234.975,639.014,234.270C638.294,233.566,637.342,232.985,636.174,232.513C635.000,232.048,633.666,231.638,632.185,231.283C630.697,230.934,629.192,230.542,627.667,230.113C626.100,229.721,624.576,229.244,623.088,228.680C621.607,228.117,620.273,227.382,619.099,226.482C617.931,225.589,616.979,224.468,616.259,223.121C615.534,221.774,615.172,220.146,615.172,218.235C615.172,216.086,615.633,214.225,616.548,212.645C617.470,211.066,618.675,209.749,620.156,208.690C621.644,207.637,623.328,206.859,625.209,206.351C627.083,205.843,628.964,205.592,630.839,205.592C633.033,205.592,635.135,205.837,637.151,206.327C639.161,206.810,640.956,207.606,642.517,208.696C644.084,209.792,645.326,211.188,646.248,212.884C647.164,214.586,647.625,216.643,647.625,219.062L638.675,219.062C638.595,217.813,638.337,216.778,637.889,215.964C637.440,215.143,636.844,214.500,636.100,214.029C635.362,213.564,634.514,213.227,633.562,213.037C632.609,212.841,631.564,212.743,630.433,212.743C629.695,212.743,628.952,212.823,628.214,212.976C627.471,213.135,626.801,213.405,626.198,213.796C625.590,214.188,625.098,214.672,624.705,215.260C624.317,215.847,624.121,216.588,624.121,217.482C624.121,218.303,624.274,218.970,624.588,219.472C624.901,219.980,625.516,220.452,626.438,220.880C627.360,221.309,628.626,221.737,630.249,222.166C631.871,222.595,633.998,223.146,636.616,223.807C637.397,223.960,638.485,224.248,639.868,224.658C641.257,225.068,642.640,225.717,644.005,226.617C645.375,227.517,646.555,228.717,647.557,230.217C648.553,231.717,649.051,233.640,649.051,235.985C649.051,237.895,648.676,239.671,647.932,241.312C647.188,242.952,646.082,244.367,644.613,245.555C643.144,246.748,641.325,247.673,639.149,248.334C636.979,249.002,634.465,249.332,631.601,249.332C629.290,249.332,627.053,249.044,624.877,248.481C622.701,247.912,620.783,247.024,619.124,245.812C617.458,244.599,616.137,243.050,615.153,241.177C614.176,239.303,613.703,237.081,613.746,234.503L622.695,234.503C622.695,235.905,622.947,237.099,623.457,238.073ZZ" style="fill: rgb(255, 255, 255);"/></g></g><g id="shape-ece37852-2307-8031-8006-3aa44c1ac339"><g class="fills" id="fills-ece37852-2307-8031-8006-3aa44c1ac339"><path d="M675.425,206.621L691.111,248.402L681.535,248.402L678.363,239.095L662.677,239.095L659.383,248.402L650.102,248.402L665.966,206.621L675.425,206.621ZZM675.954,232.238L670.668,216.919L670.545,216.919L665.087,232.238L675.954,232.238ZZ" style="fill: rgb(255, 255, 255);"/></g></g><g id="shape-ece37852-2307-8031-8006-3aa44c1b275d"><g class="fills" id="fills-ece37852-2307-8031-8006-3aa44c1b275d"><path d="M459.280,206.621L476.803,234.650L476.901,234.650L476.901,206.621L485.556,206.621L485.556,248.402L476.330,248.402L458.874,220.427L458.757,220.427L458.757,248.402L450.103,248.402L450.103,206.621L459.280,206.621ZZ" style="fill: rgb(255, 255, 255);"/></g></g><g id="shape-ece37852-2307-8031-8006-3aa44c1bb15a"><g class="fills" id="fills-ece37852-2307-8031-8006-3aa44c1bb15a"><path d="M520.572,217.752C520.025,216.870,519.336,216.099,518.513,215.437C517.689,214.776,516.761,214.256,515.722,213.888C514.684,213.515,513.596,213.331,512.465,213.331C510.387,213.331,508.623,213.729,507.173,214.531C505.722,215.327,504.548,216.399,503.651,217.746C502.747,219.093,502.089,220.623,501.678,222.338C501.266,224.052,501.063,225.827,501.063,227.658C501.063,229.415,501.266,231.123,501.678,232.777C502.089,234.436,502.747,235.930,503.651,237.252C504.548,238.581,505.722,239.640,507.173,240.442C508.623,241.244,510.387,241.642,512.465,241.642C515.280,241.642,517.486,240.785,519.072,239.065C520.658,237.350,521.629,235.085,521.979,232.275L530.910,232.275C530.676,234.889,530.068,237.252,529.091,239.359C528.113,241.471,526.817,243.265,525.212,244.753C523.608,246.240,521.727,247.373,519.570,248.157C517.419,248.940,515.046,249.332,512.465,249.332C509.250,249.332,506.361,248.775,503.792,247.661C501.229,246.553,499.059,245.016,497.295,243.069C495.531,241.116,494.173,238.820,493.232,236.187C492.292,233.548,491.819,230.713,491.819,227.664C491.819,224.542,492.292,221.646,493.232,218.970C494.173,216.294,495.531,213.962,497.295,211.972C499.059,209.982,501.229,208.421,503.792,207.288C506.361,206.155,509.250,205.592,512.465,205.592C514.776,205.592,516.958,205.923,519.011,206.590C521.070,207.251,522.914,208.219,524.536,209.492C526.165,210.760,527.505,212.333,528.562,214.207C529.619,216.080,530.283,218.229,530.560,220.648L521.629,220.648C521.469,219.595,521.119,218.627,520.572,217.752ZZ" style="fill: rgb(255, 255, 255);"/></g></g><g id="shape-ece37852-2307-8031-8006-3aa44c1be09d" rx="0" ry="0" style="fill: rgb(0, 0, 0);"><g id="shape-ece37852-2307-8031-8006-3aa44c1c0edd"><g class="fills" id="fills-ece37852-2307-8031-8006-3aa44c1c0edd"><path d="M725.672,94.521C725.703,131.401,695.708,161.322,658.682,161.350C621.656,161.371,591.625,131.502,591.593,94.613C591.593,94.586,591.593,94.549,591.593,94.521C591.569,57.642,621.564,27.720,658.584,27.693C695.610,27.665,725.641,57.544,725.672,94.420C725.672,94.457,725.672,94.485,725.672,94.521ZZ" style="fill: rgb(255, 255, 255);"/></g></g><g id="shape-ece37852-2307-8031-8006-3aa44c1c0ede" rx="0" ry="0" style="fill: rgb(0, 0, 0);"><g id="shape-ece37852-2307-8031-8006-3aa44c1c8a17"><g class="fills" id="fills-ece37852-2307-8031-8006-3aa44c1c8a17"><path d="M658.153,21.362C637.809,21.362,620.586,28.437,606.499,42.574C592.036,57.207,584.802,74.525,584.802,94.521C584.802,114.518,592.036,131.707,606.499,146.098C620.955,160.487,638.177,167.681,658.153,167.681C678.375,167.681,695.899,160.422,710.730,145.918C724.701,132.136,731.689,115.004,731.689,94.521C731.689,74.038,724.584,56.720,710.361,42.574C696.144,28.437,678.744,21.362,658.153,21.362ZZM658.338,34.532C675.007,34.532,689.156,40.382,700.803,52.091C712.568,63.672,718.450,77.809,718.450,94.521C718.450,111.346,712.691,125.306,701.166,136.409C689.039,148.355,674.755,154.327,658.338,154.327C641.914,154.327,627.759,148.413,615.872,136.587C603.985,124.758,598.041,110.740,598.041,94.521C598.041,78.302,604.040,64.159,616.056,52.091C627.575,40.382,641.668,34.532,658.338,34.532ZZ"/></g></g><g id="shape-ece37852-2307-8031-8006-3aa44c1ccb48"><g class="fills" id="fills-ece37852-2307-8031-8006-3aa44c1ccb48"><path d="M625.602,84.199C628.528,65.788,641.533,55.949,657.840,55.949C681.282,55.949,695.573,72.896,695.573,95.495C695.573,117.548,680.366,134.674,657.471,134.674C641.718,134.674,627.612,125.021,625.049,106.066L643.549,106.066C644.102,115.905,650.513,119.370,659.671,119.370C670.108,119.370,676.887,109.712,676.887,94.950C676.887,79.453,671.030,71.258,660.034,71.258C651.976,71.258,645.018,74.176,643.549,84.199L648.927,84.162L634.367,98.672L619.805,84.162L625.602,84.199ZZ"/></g></g></g></g><g id="shape-ece37852-2307-8031-8006-3aa44c1ccb49" rx="0" ry="0" style="fill: rgb(0, 0, 0);"><g id="shape-ece37852-2307-8031-8006-3aa44c1d357a"><g class="fills" id="fills-ece37852-2307-8031-8006-3aa44c1d357a"><path d="M561.322,94.521C561.353,132.114,530.781,162.596,493.054,162.629C455.321,162.654,424.706,132.206,424.681,94.619C424.681,94.586,424.681,94.552,424.681,94.521C424.651,56.934,455.223,26.447,492.950,26.413C530.683,26.389,561.298,56.840,561.322,94.521ZC561.322,94.451,561.322,94.491,561.322,94.521ZZ" style="fill: rgb(255, 255, 255);"/></g></g><g id="shape-ece37852-2307-8031-8006-3aa44c1deac2"><g class="fills" id="fills-ece37852-2307-8031-8006-3aa44c1deac2"><path d="M492.906,21.362C513.497,21.362,530.898,28.437,545.114,42.574C559.337,56.720,566.442,74.038,566.442,94.521C566.442,115.004,559.454,132.136,545.489,145.918C530.652,160.428,513.128,167.680,492.906,167.680C472.930,167.680,455.708,160.486,441.252,146.098C426.789,131.716,419.555,114.518,419.555,94.521C419.555,74.525,426.789,57.207,441.252,42.574C455.346,28.437,472.562,21.362,492.906,21.362ZZM436.083,74.868C433.888,81.039,432.795,87.591,432.795,94.521C432.795,110.740,438.738,124.758,450.625,136.587C462.512,148.413,476.668,154.327,493.091,154.327C509.514,154.327,523.792,148.355,535.925,136.403C539.982,132.494,543.332,128.229,545.956,123.607L518.273,111.325C516.398,120.607,508.094,126.870,498.057,127.608L498.057,138.889L489.624,138.889L489.624,127.608C481.388,127.513,473.423,124.155,467.331,118.847L477.448,108.689C482.322,113.254,487.190,115.305,493.841,115.305C498.156,115.305,502.931,113.627,502.931,108.031C502.931,106.053,502.157,104.673,500.946,103.638L493.945,100.531L485.224,96.664C480.909,94.751,477.258,93.134,473.594,91.506L436.083,74.868ZZM493.091,34.532C476.422,34.532,462.334,40.382,450.810,52.091C447.675,55.241,444.946,58.535,442.629,61.973L470.706,74.424C473.244,66.666,480.644,61.958,489.624,61.435L489.624,50.154L498.057,50.154L498.057,61.435C503.866,61.716,510.233,63.302,516.515,68.145L506.865,78.024C503.300,75.511,498.807,73.738,494.308,73.738C490.657,73.738,485.506,74.852,485.506,79.417C485.506,80.118,485.740,80.733,486.164,81.275L495.555,85.441L501.911,88.264C505.980,90.070,509.858,91.784,513.706,93.493L551.341,110.183C552.582,105.273,553.203,100.050,553.203,94.521C553.203,77.809,547.321,63.672,535.563,52.091C523.915,40.382,509.760,34.532,493.091,34.532ZZ"/></g></g></g></g></g></g></svg>