<svg width="24" height="24" viewBox="0 0 24 24" fill="none" xmlns="http://www.w3.org/2000/svg">
<g clip-path="url(#clip0_4_2)">
<rect width="24" height="24" rx="5" fill="black"/>
<path d="M15.3867 12.7383C16.0039 13.3242 16.3125 14.0664 16.3125 14.9648C16.3125 15.8555 15.9453 16.6211 15.2109 17.2617C14.4766 17.8945 13.4609 18.2109 12.1641 18.2109H11.8477C10.3711 18.2109 9.24609 18.0273 8.47266 17.6602C8.04297 17.457 7.82812 17.0039 7.82812 16.3008V16.0078C7.82812 15.1094 7.99609 14.6602 8.33203 14.6602C8.61328 14.6602 8.94531 14.9258 9.32812 15.457C9.71094 15.9805 10.0312 16.332 10.2891 16.5117C10.7891 16.8555 11.375 17.0273 12.0469 17.0273C12.7266 17.0273 13.2266 16.8867 13.5469 16.6055C13.8672 16.3164 14.0273 15.9375 14.0273 15.4688C14.0273 15 13.7539 14.5664 13.207 14.168C12.918 13.957 12.2422 13.625 11.1797 13.1719C10.125 12.7188 9.33594 12.2461 8.8125 11.7539C8.28906 11.2539 8.02734 10.5508 8.02734 9.64453C8.02734 8.73828 8.40625 8.00391 9.16406 7.44141C9.92188 6.87109 10.8555 6.58594 11.9648 6.58594H12.2812C13.7344 6.58594 14.7539 6.75781 15.3398 7.10156C15.6445 7.28125 15.7969 7.78125 15.7969 8.60156C15.7969 9.42188 15.6016 9.83203 15.2109 9.83203C14.9922 9.83203 14.6914 9.58984 14.3086 9.10547C13.9336 8.61328 13.5898 8.26562 13.2773 8.0625C12.9648 7.85156 12.5312 7.74609 11.9766 7.74609C11.4297 7.74609 10.9961 7.87109 10.6758 8.12109C10.3555 8.37109 10.1953 8.73438 10.1953 9.21094C10.1953 9.67969 10.4883 10.1016 11.0742 10.4766C11.2227 10.5781 11.8711 10.8789 13.0195 11.3789C14.168 11.8789 14.957 12.332 15.3867 12.7383Z" fill="white"/>
</g>
<defs>
<clipPath id="clip0_4_2">
<rect width="24" height="24" rx="5" fill="white"/>
</clipPath>
</defs>
</svg>
